<svg version="1.1" xmlns="http://www.w3.org/2000/svg" xmlns:xlink="http://www.w3.org/1999/xlink"
    width="100px" height="100px" viewBox="0,0,256,256">
    <g fill="none" fill-rule="nonzero" stroke="none" stroke-width="1" stroke-linecap="butt"
        stroke-linejoin="miter" stroke-miterlimit="10" stroke-dasharray="" stroke-dashoffset="0"
        font-family="none" font-weight="none" font-size="none" text-anchor="none"
        style="mix-blend-mode: normal">
        <g transform="scale(2.56,2.56)">
            <path d="M86,40v-16l-36,36l-36,-36v16l36,36z" fill="#2ce8f4"></path>
            <path
                d="M50,77c-0.256,0 -0.512,-0.098 -0.707,-0.293l-36,-36c-0.188,-0.187 -0.293,-0.441 -0.293,-0.707v-16c0,-0.404 0.243,-0.77 0.617,-0.924c0.375,-0.155 0.804,-0.069 1.09,0.217l35.293,35.293l35.293,-35.293c0.287,-0.286 0.716,-0.372 1.09,-0.217c0.374,0.154 0.617,0.52 0.617,0.924v16c0,0.266 -0.105,0.52 -0.293,0.707l-36,36c-0.195,0.195 -0.451,0.293 -0.707,0.293zM15,39.586l35,35l35,-35v-13.172l-34.293,34.293c-0.391,0.391 -1.023,0.391 -1.414,0l-34.293,-34.293z"
                fill="#1f212b"></path>
            <path
                d="M50,71c-0.128,0 -0.256,-0.049 -0.354,-0.146l-1.5,-1.5c-0.195,-0.195 -0.195,-0.512 0,-0.707c0.195,-0.195 0.512,-0.195 0.707,0l1.5,1.5c0.195,0.195 0.195,0.512 0,0.707c-0.097,0.097 -0.225,0.146 -0.353,0.146zM46,67c-0.128,0 -0.256,-0.049 -0.354,-0.146l-3.5,-3.5c-0.195,-0.195 -0.195,-0.512 0,-0.707c0.195,-0.195 0.512,-0.195 0.707,0l3.5,3.5c0.195,0.195 0.195,0.512 0,0.707c-0.097,0.097 -0.225,0.146 -0.353,0.146zM55.5,65.5c-0.128,0 -0.256,-0.049 -0.354,-0.146c-0.195,-0.195 -0.195,-0.512 0,-0.707l24,-24c0.195,-0.195 0.512,-0.195 0.707,0c0.195,0.195 0.195,0.512 0,0.707l-24,24c-0.097,0.097 -0.225,0.146 -0.353,0.146zM37,58c-0.128,0 -0.256,-0.049 -0.354,-0.146l-16.5,-16.5c-0.195,-0.195 -0.195,-0.512 0,-0.707c0.195,-0.195 0.512,-0.195 0.707,0l16.5,16.5c0.195,0.195 0.195,0.512 0,0.707c-0.097,0.097 -0.225,0.146 -0.353,0.146z"
                fill="#1f212b"></path>
        </g>
    </g>
</svg>