<svg id="svg" version="1.1" xmlns="http://www.w3.org/2000/svg" xmlns:xlink="http://www.w3.org/1999/xlink" width="400" height="400" viewBox="0, 0, 400,400"><g id="svgg"><path id="path0" d="M102.228 0.261 C 101.201 0.561,100.400 1.398,100.400 2.171 C 100.400 2.517,100.220 2.800,100.000 2.800 C 99.472 2.800,99.472 9.474,100.000 9.800 C 100.220 9.936,100.400 10.667,100.400 11.424 C 100.400 12.181,100.580 12.800,100.800 12.800 C 101.020 12.800,101.200 13.520,101.200 14.400 C 101.200 15.280,101.380 16.000,101.600 16.000 C 101.820 16.000,102.000 16.720,102.000 17.600 C 102.000 18.480,102.180 19.200,102.400 19.200 C 102.620 19.200,102.800 19.729,102.800 20.376 C 102.800 21.023,102.980 21.664,103.200 21.800 C 103.420 21.936,103.600 22.577,103.600 23.224 C 103.600 23.871,103.780 24.400,104.000 24.400 C 104.220 24.400,104.400 24.940,104.400 25.600 C 104.400 26.290,104.612 26.803,104.900 26.806 C 105.233 26.810,105.200 26.942,104.800 27.200 C 104.400 27.458,104.367 27.590,104.700 27.594 C 104.988 27.597,105.200 28.110,105.200 28.800 C 105.200 29.460,105.380 30.000,105.600 30.000 C 105.820 30.000,106.000 30.529,106.000 31.176 C 106.000 31.823,106.180 32.464,106.400 32.600 C 106.620 32.736,106.800 33.467,106.800 34.224 C 106.800 34.981,106.980 35.600,107.200 35.600 C 107.420 35.600,107.600 36.140,107.600 36.800 C 107.600 37.460,107.757 38.000,107.948 38.000 C 108.140 38.000,108.415 38.893,108.560 39.984 C 108.705 41.075,108.998 42.075,109.212 42.207 C 109.425 42.339,109.600 42.977,109.600 43.624 C 109.600 44.271,109.780 44.800,110.000 44.800 C 110.220 44.800,110.400 45.340,110.400 46.000 C 110.400 46.660,110.580 47.200,110.800 47.200 C 111.020 47.200,111.200 47.740,111.200 48.400 C 111.200 49.060,111.380 49.600,111.600 49.600 C 111.820 49.600,112.000 50.140,112.000 50.800 C 112.000 51.460,112.180 52.000,112.400 52.000 C 112.620 52.000,112.800 52.439,112.800 52.976 C 112.800 53.513,112.980 54.064,113.200 54.200 C 113.420 54.336,113.600 54.887,113.600 55.424 C 113.600 55.961,113.780 56.400,114.000 56.400 C 114.220 56.400,114.400 56.749,114.400 57.176 C 114.400 57.603,114.580 58.064,114.800 58.200 C 115.020 58.336,115.200 58.887,115.200 59.424 C 115.200 59.961,115.380 60.400,115.600 60.400 C 115.820 60.400,116.000 60.850,116.000 61.400 C 116.000 61.950,116.180 62.400,116.400 62.400 C 116.620 62.400,116.800 62.850,116.800 63.400 C 116.800 63.950,116.980 64.400,117.200 64.400 C 117.420 64.400,117.600 64.749,117.600 65.176 C 117.600 65.603,117.780 66.064,118.000 66.200 C 118.220 66.336,118.400 66.887,118.400 67.424 C 118.400 67.961,118.580 68.400,118.800 68.400 C 119.020 68.400,119.200 68.760,119.200 69.200 C 119.200 69.640,119.380 70.000,119.600 70.000 C 119.820 70.000,120.000 70.360,120.000 70.800 C 120.000 71.240,120.180 71.600,120.400 71.600 C 120.620 71.600,120.800 71.960,120.800 72.400 C 120.800 72.840,120.946 73.200,121.125 73.200 C 121.304 73.200,121.698 73.830,122.000 74.600 C 122.302 75.370,122.696 76.000,122.875 76.000 C 123.054 76.000,123.200 76.360,123.200 76.800 C 123.200 77.240,123.380 77.600,123.600 77.600 C 123.820 77.600,124.000 77.960,124.000 78.400 C 124.000 78.840,124.180 79.200,124.400 79.200 C 124.620 79.200,124.800 79.462,124.800 79.782 C 124.800 80.295,126.151 82.629,127.140 83.825 C 127.334 84.059,127.726 84.689,128.013 85.225 C 128.779 86.658,134.023 91.600,134.777 91.600 C 135.132 91.600,135.683 91.960,136.000 92.400 C 136.317 92.840,136.814 93.200,137.105 93.200 C 137.396 93.200,138.020 93.560,138.492 94.000 C 138.964 94.440,139.587 94.800,139.875 94.800 C 140.164 94.800,140.400 94.980,140.400 95.200 C 140.400 95.420,140.760 95.600,141.200 95.600 C 141.640 95.600,142.000 95.780,142.000 96.000 C 142.000 96.220,142.360 96.400,142.800 96.400 C 143.240 96.400,143.600 96.580,143.600 96.800 C 143.600 97.020,144.050 97.200,144.600 97.200 C 145.150 97.200,145.600 97.380,145.600 97.600 C 145.600 97.820,145.960 98.000,146.400 98.000 C 146.840 98.000,147.200 98.180,147.200 98.400 C 147.200 98.620,147.549 98.800,147.976 98.800 C 148.403 98.800,148.864 98.980,149.000 99.200 C 149.136 99.420,149.687 99.600,150.224 99.600 C 150.761 99.600,151.200 99.780,151.200 100.000 C 151.200 100.220,151.639 100.400,152.176 100.400 C 152.713 100.400,153.264 100.580,153.400 100.800 C 153.536 101.020,153.997 101.200,154.424 101.200 C 154.851 101.200,155.200 101.380,155.200 101.600 C 155.200 101.820,155.740 102.000,156.400 102.000 C 157.060 102.000,157.600 102.180,157.600 102.400 C 157.600 102.620,158.140 102.800,158.800 102.800 C 159.460 102.800,160.000 102.980,160.000 103.200 C 160.000 103.420,160.439 103.600,160.976 103.600 C 161.513 103.600,162.064 103.780,162.200 104.000 C 162.336 104.220,163.067 104.400,163.824 104.400 C 164.581 104.400,165.200 104.580,165.200 104.800 C 165.200 105.020,165.740 105.200,166.400 105.200 C 167.060 105.200,167.600 105.360,167.600 105.556 C 167.600 105.752,168.185 106.009,168.900 106.128 C 170.813 106.444,172.519 106.832,173.200 107.106 C 174.041 107.443,178.303 108.408,180.100 108.667 C 180.925 108.786,181.600 109.045,181.600 109.242 C 181.600 109.439,182.320 109.600,183.200 109.600 C 184.080 109.600,184.800 109.780,184.800 110.000 C 184.800 110.220,185.700 110.400,186.800 110.400 C 187.900 110.400,188.800 110.580,188.800 110.800 C 188.800 111.020,189.520 111.200,190.400 111.200 C 191.280 111.200,192.000 111.380,192.000 111.600 C 192.000 111.820,192.630 112.000,193.400 112.000 C 194.170 112.000,194.800 112.180,194.800 112.400 C 194.800 112.620,195.623 112.800,196.629 112.800 C 198.972 112.800,200.655 114.501,199.200 115.400 C 198.980 115.536,198.800 116.087,198.800 116.624 C 198.800 117.161,198.620 117.600,198.400 117.600 C 198.180 117.600,198.000 118.020,198.000 118.533 C 198.000 119.047,197.877 119.590,197.726 119.741 C 197.282 120.185,196.413 122.924,196.406 123.900 C 196.403 124.395,196.220 124.800,196.000 124.800 C 195.780 124.800,195.600 125.419,195.600 126.176 C 195.600 126.933,195.420 127.664,195.200 127.800 C 194.980 127.936,194.800 128.836,194.800 129.800 C 194.800 130.764,194.620 131.664,194.400 131.800 C 194.180 131.936,194.000 133.207,194.000 134.624 C 194.000 136.075,193.825 137.200,193.600 137.200 C 193.380 137.200,193.200 138.100,193.200 139.200 C 193.200 141.156,193.173 141.200,192.000 141.200 C 191.340 141.200,190.800 141.037,190.800 140.839 C 190.800 140.501,189.799 140.329,184.500 139.754 C 183.345 139.628,182.400 139.363,182.400 139.163 C 182.400 138.963,181.140 138.800,179.600 138.800 C 178.000 138.800,176.800 138.629,176.800 138.400 C 176.800 138.169,175.533 138.000,173.800 138.000 C 172.067 138.000,170.800 137.831,170.800 137.600 C 170.800 137.360,169.200 137.200,166.800 137.200 C 164.400 137.200,162.800 137.040,162.800 136.800 C 162.800 136.543,158.800 136.400,151.600 136.400 C 142.910 136.400,140.399 136.512,140.394 136.900 C 140.390 137.233,140.258 137.200,140.000 136.800 C 139.742 136.400,139.610 136.367,139.606 136.700 C 139.602 137.063,138.610 137.200,136.000 137.200 C 133.867 137.200,132.400 137.363,132.400 137.600 C 132.400 137.822,131.333 138.000,130.000 138.000 C 128.667 138.000,127.600 138.178,127.600 138.400 C 127.600 138.620,126.790 138.800,125.800 138.800 C 124.810 138.800,124.000 138.980,124.000 139.200 C 124.000 139.420,123.280 139.600,122.400 139.600 C 121.520 139.600,120.800 139.780,120.800 140.000 C 120.800 140.220,120.080 140.400,119.200 140.400 C 118.320 140.400,117.600 140.580,117.600 140.800 C 117.600 141.020,117.161 141.200,116.624 141.200 C 116.087 141.200,115.549 141.360,115.428 141.555 C 115.307 141.750,114.545 142.034,113.733 142.186 C 111.833 142.543,108.320 144.080,103.800 146.532 C 101.779 147.629,100.401 149.146,100.400 150.276 C 100.400 150.758,100.220 151.264,100.000 151.400 C 99.780 151.536,99.600 152.267,99.600 153.024 C 99.600 153.781,99.780 154.400,100.000 154.400 C 100.220 154.400,100.400 154.760,100.400 155.200 C 100.400 155.640,100.642 156.000,100.938 156.000 C 101.234 156.000,101.818 156.378,102.237 156.841 C 104.421 159.254,106.885 159.368,111.109 157.250 C 118.939 153.324,126.691 151.163,138.516 149.609 C 142.524 149.083,159.061 149.079,163.773 149.604 C 173.224 150.656,175.166 150.891,177.400 151.252 C 182.924 152.142,186.009 152.715,190.200 153.626 C 191.080 153.817,193.645 154.369,195.901 154.853 L 200.002 155.733 205.901 154.462 C 209.145 153.763,212.790 153.003,214.000 152.772 C 220.092 151.609,221.486 150.332,222.150 145.300 C 222.441 143.096,220.716 140.400,219.013 140.400 C 218.676 140.400,218.400 140.205,218.400 139.966 C 218.400 139.676,217.567 139.605,215.900 139.752 C 211.054 140.180,209.200 140.481,209.200 140.839 C 209.200 141.037,208.664 141.200,208.010 141.200 C 206.898 141.200,206.845 141.133,207.210 140.174 C 207.424 139.610,207.600 138.401,207.600 137.488 C 207.600 135.321,208.886 128.400,209.288 128.400 C 209.460 128.400,209.600 127.781,209.600 127.024 C 209.600 126.267,209.780 125.536,210.000 125.400 C 210.220 125.264,210.400 124.803,210.400 124.376 C 210.400 123.949,210.580 123.600,210.800 123.600 C 211.020 123.600,211.200 123.150,211.200 122.600 C 211.200 122.050,211.380 121.600,211.600 121.600 C 211.820 121.600,212.000 121.240,212.000 120.800 C 212.000 120.360,212.180 120.000,212.400 120.000 C 212.620 120.000,212.800 119.747,212.800 119.438 C 212.800 118.772,214.468 115.459,214.900 115.267 C 215.065 115.193,215.200 114.788,215.200 114.367 C 215.200 113.945,215.380 113.600,215.600 113.600 C 215.820 113.600,216.000 113.280,216.000 112.888 C 216.000 112.497,216.360 111.917,216.800 111.600 C 217.240 111.283,217.600 110.743,217.600 110.400 C 217.600 110.057,217.960 109.517,218.400 109.200 C 218.840 108.883,219.201 108.438,219.202 108.212 C 219.203 107.985,219.743 107.225,220.402 106.522 C 221.061 105.819,221.600 105.150,221.600 105.035 C 221.600 104.496,230.178 95.600,230.699 95.600 C 230.882 95.600,231.828 94.880,232.800 94.000 C 233.772 93.120,234.785 92.400,235.051 92.400 C 235.316 92.400,235.593 92.262,235.667 92.094 C 235.838 91.701,240.736 88.800,241.229 88.800 C 241.433 88.800,241.600 88.620,241.600 88.400 C 241.600 88.180,241.960 88.000,242.400 88.000 C 242.840 88.000,243.200 87.820,243.200 87.600 C 243.200 87.380,243.560 87.200,244.000 87.200 C 244.440 87.200,244.800 87.020,244.800 86.800 C 244.800 86.580,245.160 86.400,245.600 86.400 C 246.040 86.400,246.400 86.220,246.400 86.000 C 246.400 85.780,246.839 85.600,247.376 85.600 C 247.913 85.600,248.464 85.420,248.600 85.200 C 248.736 84.980,249.197 84.800,249.624 84.800 C 250.051 84.800,250.400 84.620,250.400 84.400 C 250.400 84.180,250.940 84.000,251.600 84.000 C 252.260 84.000,252.800 83.820,252.800 83.600 C 252.800 83.380,253.430 83.200,254.200 83.200 C 254.970 83.200,255.600 83.020,255.600 82.800 C 255.600 82.580,256.320 82.400,257.200 82.400 C 258.080 82.400,258.800 82.220,258.800 82.000 C 258.800 81.780,259.700 81.600,260.800 81.600 C 261.900 81.600,262.800 81.420,262.800 81.200 C 262.800 80.955,264.725 80.800,267.776 80.800 C 270.663 80.800,272.857 80.632,273.000 80.400 C 273.136 80.180,273.783 80.000,274.437 80.000 C 275.736 80.000,278.400 77.724,278.400 76.613 C 278.400 76.276,278.580 76.000,278.800 76.000 C 279.020 76.000,279.200 75.010,279.200 73.800 C 279.200 72.590,279.020 71.600,278.800 71.600 C 278.580 71.600,278.400 71.312,278.400 70.960 C 278.400 70.130,275.870 67.600,275.040 67.600 C 274.688 67.600,274.400 67.420,274.400 67.200 C 274.400 66.961,272.867 66.800,270.600 66.800 C 268.333 66.800,266.800 66.961,266.800 67.200 C 266.800 67.435,265.408 67.600,263.424 67.600 C 261.567 67.600,259.936 67.780,259.800 68.000 C 259.664 68.220,258.573 68.400,257.376 68.400 C 256.179 68.400,255.200 68.580,255.200 68.800 C 255.200 69.020,254.480 69.200,253.600 69.200 C 252.720 69.200,252.000 69.380,252.000 69.600 C 252.000 69.820,251.381 70.000,250.624 70.000 C 249.867 70.000,249.136 70.180,249.000 70.400 C 248.864 70.620,248.324 70.800,247.800 70.800 C 247.276 70.800,246.736 70.980,246.600 71.200 C 246.464 71.420,245.913 71.600,245.376 71.600 C 244.839 71.600,244.400 71.780,244.400 72.000 C 244.400 72.220,244.128 72.400,243.795 72.400 C 243.462 72.400,242.832 72.580,242.395 72.800 C 241.958 73.020,241.242 73.380,240.805 73.600 C 240.368 73.820,239.738 74.000,239.405 74.000 C 239.072 74.000,238.800 74.180,238.800 74.400 C 238.800 74.620,238.511 74.800,238.158 74.800 C 237.429 74.800,231.870 77.618,231.667 78.091 C 231.593 78.261,231.312 78.400,231.042 78.400 C 230.772 78.400,230.202 78.715,229.775 79.100 C 229.349 79.485,228.505 80.055,227.900 80.368 C 227.295 80.680,226.800 81.085,226.800 81.268 C 226.800 81.450,226.618 81.600,226.396 81.600 C 226.174 81.600,225.428 82.140,224.737 82.800 C 224.046 83.460,223.325 84.000,223.133 84.000 C 222.942 84.000,221.574 85.173,220.093 86.606 C 218.612 88.039,216.287 90.289,214.927 91.606 C 212.030 94.411,212.000 94.422,212.000 92.600 C 212.000 91.830,211.820 91.200,211.600 91.200 C 211.380 91.200,211.200 90.480,211.200 89.600 C 211.200 88.720,211.020 88.000,210.800 88.000 C 210.580 88.000,210.400 87.280,210.400 86.400 C 210.400 85.520,210.220 84.800,210.000 84.800 C 209.780 84.800,209.600 84.080,209.600 83.200 C 209.600 82.320,209.438 81.600,209.240 81.600 C 209.042 81.600,208.791 80.835,208.680 79.900 C 208.408 77.587,207.651 74.350,207.184 73.505 C 206.973 73.123,206.800 72.279,206.800 71.629 C 206.800 70.979,206.620 70.336,206.400 70.200 C 206.180 70.064,206.000 69.423,206.000 68.776 C 206.000 68.129,205.820 67.600,205.600 67.600 C 205.380 67.600,205.200 66.981,205.200 66.224 C 205.200 65.467,205.020 64.736,204.800 64.600 C 204.580 64.464,204.400 63.924,204.400 63.400 C 204.400 62.876,204.220 62.336,204.000 62.200 C 203.780 62.064,203.600 61.524,203.600 61.000 C 203.600 60.476,203.420 59.936,203.200 59.800 C 202.980 59.664,202.800 59.113,202.800 58.576 C 202.800 58.039,202.620 57.600,202.400 57.600 C 202.180 57.600,202.000 57.060,202.000 56.400 C 202.000 55.740,201.820 55.200,201.600 55.200 C 201.380 55.200,201.200 54.660,201.200 54.000 C 201.200 53.340,201.020 52.800,200.800 52.800 C 200.580 52.800,200.400 52.440,200.400 52.000 C 200.400 51.560,200.220 51.200,200.000 51.200 C 199.780 51.200,199.600 50.660,199.600 50.000 C 199.600 49.340,199.420 48.800,199.200 48.800 C 198.980 48.800,198.800 48.440,198.800 48.000 C 198.800 47.560,198.620 47.200,198.400 47.200 C 198.180 47.200,198.000 46.750,198.000 46.200 C 198.000 45.650,197.820 45.200,197.600 45.200 C 197.380 45.200,197.200 44.966,197.200 44.680 C 197.200 43.944,196.259 42.007,195.900 42.003 C 195.735 42.001,195.600 41.640,195.600 41.200 C 195.600 40.760,195.420 40.400,195.200 40.400 C 194.980 40.400,194.800 40.080,194.800 39.688 C 194.800 39.297,194.440 38.717,194.000 38.400 C 193.560 38.083,193.200 37.503,193.200 37.112 C 193.200 36.720,193.020 36.400,192.800 36.400 C 192.580 36.400,192.397 35.995,192.394 35.500 C 192.389 34.772,192.314 34.715,192.000 35.200 C 191.684 35.689,191.611 35.641,191.606 34.937 C 191.599 33.948,185.527 27.600,184.589 27.600 C 184.265 27.600,184.000 27.441,184.000 27.246 C 184.000 27.051,183.378 26.596,182.617 26.235 C 181.856 25.874,181.126 25.403,180.993 25.189 C 180.861 24.975,180.403 24.800,179.976 24.800 C 179.549 24.800,179.200 24.620,179.200 24.400 C 179.200 24.180,178.840 24.000,178.400 24.000 C 177.960 24.000,177.600 23.820,177.600 23.600 C 177.600 23.380,177.364 23.200,177.075 23.200 C 176.787 23.200,176.164 22.840,175.692 22.400 C 175.220 21.960,174.556 21.600,174.217 21.600 C 173.878 21.600,173.600 21.420,173.600 21.200 C 173.600 20.980,173.251 20.800,172.824 20.800 C 172.397 20.800,171.936 20.620,171.800 20.400 C 171.664 20.180,171.203 20.000,170.776 20.000 C 170.349 20.000,170.000 19.820,170.000 19.600 C 170.000 19.380,169.640 19.200,169.200 19.200 C 168.760 19.200,168.400 19.020,168.400 18.800 C 168.400 18.580,168.040 18.400,167.600 18.400 C 167.160 18.400,166.800 18.220,166.800 18.000 C 166.800 17.780,166.260 17.600,165.600 17.600 C 164.940 17.600,164.400 17.420,164.400 17.200 C 164.400 16.980,164.040 16.800,163.600 16.800 C 163.160 16.800,162.800 16.620,162.800 16.400 C 162.800 16.180,162.260 16.000,161.600 16.000 C 160.940 16.000,160.400 15.820,160.400 15.600 C 160.400 15.380,160.040 15.200,159.600 15.200 C 159.160 15.200,158.800 15.020,158.800 14.800 C 158.800 14.580,158.361 14.400,157.824 14.400 C 157.287 14.400,156.736 14.220,156.600 14.000 C 156.464 13.780,155.913 13.600,155.376 13.600 C 154.839 13.600,154.400 13.420,154.400 13.200 C 154.400 12.980,153.986 12.800,153.480 12.800 C 152.974 12.800,152.389 12.657,152.180 12.482 C 151.971 12.307,151.080 11.935,150.200 11.655 C 149.320 11.376,148.240 11.003,147.800 10.826 C 145.863 10.049,141.657 8.816,140.091 8.567 C 139.151 8.417,138.286 8.139,138.168 7.947 C 138.049 7.756,137.423 7.600,136.776 7.600 C 136.129 7.600,135.600 7.420,135.600 7.200 C 135.600 6.980,135.060 6.800,134.400 6.800 C 133.740 6.800,133.200 6.620,133.200 6.400 C 133.200 6.180,132.480 6.000,131.600 6.000 C 130.720 6.000,130.000 5.820,130.000 5.600 C 130.000 5.380,129.460 5.200,128.800 5.200 C 128.140 5.200,127.600 5.020,127.600 4.800 C 127.600 4.580,126.880 4.400,126.000 4.400 C 125.120 4.400,124.400 4.220,124.400 4.000 C 124.400 3.780,123.961 3.600,123.424 3.600 C 122.887 3.600,122.336 3.420,122.200 3.200 C 122.064 2.980,121.333 2.800,120.576 2.800 C 119.819 2.800,119.200 2.620,119.200 2.400 C 119.200 2.180,118.581 2.000,117.824 2.000 C 117.067 2.000,116.336 1.820,116.200 1.600 C 116.064 1.380,115.438 1.200,114.810 1.200 C 114.181 1.200,113.603 1.009,113.525 0.775 C 113.372 0.316,103.569 -0.130,102.228 0.261 M130.316 18.841 C 142.497 22.659,156.534 27.619,161.600 29.894 C 179.700 38.025,182.866 41.277,188.773 57.800 C 189.481 59.780,190.296 62.030,190.584 62.800 C 191.158 64.334,193.750 72.962,194.640 76.300 C 194.948 77.455,195.470 79.390,195.800 80.600 C 196.130 81.810,196.670 83.799,197.000 85.020 C 197.330 86.240,197.600 87.635,197.600 88.119 C 197.600 88.765,188.258 79.657,162.400 53.800 C 143.040 34.441,127.200 18.466,127.200 18.301 C 127.200 17.880,127.309 17.899,130.316 18.841 M153.673 62.020 C 173.043 81.392,188.775 97.358,188.632 97.501 C 188.204 97.929,173.529 93.968,164.600 91.014 C 149.921 86.159,142.283 82.266,139.018 77.976 C 133.054 70.140,126.462 54.752,120.007 33.600 C 119.302 31.290,118.562 28.987,118.363 28.481 C 117.948 27.432,117.897 26.800,118.226 26.800 C 118.351 26.800,134.302 42.649,153.673 62.020 M238.800 136.800 C 238.800 137.020,238.348 137.200,237.795 137.200 C 232.712 137.200,231.684 145.142,236.359 148.286 C 237.688 149.179,237.952 149.200,248.043 149.200 C 257.708 149.200,260.327 149.368,267.400 150.444 C 270.442 150.906,271.285 151.094,276.400 152.451 C 300.085 158.732,315.509 177.443,321.531 207.200 C 321.776 208.410,322.159 210.300,322.384 211.400 C 324.884 223.669,326.171 244.507,325.892 268.200 C 325.697 284.757,325.508 286.843,323.358 296.188 C 318.034 319.327,303.560 342.223,284.394 357.827 C 277.142 363.730,272.757 366.717,264.600 371.308 C 261.771 372.900,253.448 376.870,250.600 377.985 C 246.003 379.785,244.325 381.793,244.459 385.332 C 244.495 386.290,244.396 387.283,244.239 387.537 C 244.082 387.792,244.143 388.000,244.376 388.000 C 244.609 388.000,244.800 388.268,244.800 388.595 C 244.800 390.378,252.449 392.339,253.400 390.800 C 253.536 390.580,253.952 390.394,254.324 390.387 C 254.696 390.381,256.075 389.841,257.390 389.187 C 258.704 388.534,260.099 388.000,260.490 388.000 C 260.880 388.000,261.200 387.820,261.200 387.600 C 261.200 387.380,261.560 387.200,262.000 387.200 C 262.440 387.200,262.800 387.020,262.800 386.800 C 262.800 386.580,263.160 386.400,263.600 386.400 C 264.040 386.400,264.400 386.220,264.400 386.000 C 264.400 385.780,264.760 385.600,265.200 385.600 C 265.640 385.600,266.000 385.420,266.000 385.200 C 266.000 384.980,266.360 384.800,266.800 384.800 C 267.240 384.800,267.600 384.620,267.600 384.400 C 267.600 384.180,267.960 384.000,268.400 384.000 C 268.840 384.000,269.200 383.820,269.200 383.600 C 269.200 383.380,269.560 383.200,270.000 383.200 C 270.440 383.200,270.800 383.020,270.800 382.800 C 270.800 382.580,271.036 382.400,271.325 382.400 C 271.613 382.400,272.236 382.040,272.708 381.600 C 273.180 381.160,273.754 380.800,273.983 380.800 C 274.212 380.800,274.400 380.620,274.400 380.400 C 274.400 380.180,274.720 380.000,275.112 380.000 C 275.503 380.000,276.083 379.640,276.400 379.200 C 276.717 378.760,277.297 378.400,277.688 378.400 C 278.080 378.400,278.400 378.220,278.400 378.000 C 278.400 377.780,278.720 377.600,279.112 377.600 C 279.503 377.600,280.083 377.240,280.400 376.800 C 280.717 376.360,281.297 376.000,281.688 376.000 C 282.080 376.000,282.400 375.853,282.400 375.674 C 282.400 375.494,283.117 374.944,283.993 374.452 C 284.869 373.959,285.814 373.330,286.093 373.052 C 286.372 372.775,286.891 372.380,287.246 372.174 C 288.385 371.515,290.881 369.450,292.655 367.700 C 293.603 366.765,294.564 366.000,294.789 366.000 C 295.015 366.000,295.200 365.820,295.200 365.600 C 295.200 365.380,295.383 365.200,295.607 365.200 C 296.182 365.200,308.800 352.586,308.800 352.011 C 308.800 351.750,309.520 350.846,310.400 350.000 C 311.280 349.154,312.000 348.290,312.000 348.080 C 312.000 347.869,312.720 346.955,313.600 346.048 C 314.480 345.141,315.200 344.169,315.200 343.888 C 315.200 343.607,315.560 343.117,316.000 342.800 C 316.440 342.483,316.800 342.021,316.800 341.774 C 316.800 341.526,317.160 340.998,317.600 340.600 C 318.040 340.202,318.400 339.634,318.400 339.338 C 318.400 339.042,318.550 338.800,318.732 338.800 C 318.915 338.800,319.320 338.305,319.632 337.700 C 319.945 337.095,320.515 336.251,320.900 335.825 C 321.285 335.398,321.600 334.813,321.600 334.525 C 321.600 334.236,321.780 334.000,322.000 334.000 C 322.220 334.000,322.400 333.655,322.400 333.233 C 322.400 332.812,322.557 332.407,322.749 332.333 C 323.221 332.153,325.200 328.181,325.200 327.413 C 325.200 327.076,325.380 326.800,325.600 326.800 C 325.820 326.800,326.000 326.455,326.000 326.033 C 326.000 325.612,326.135 325.207,326.300 325.133 C 326.465 325.060,327.025 324.100,327.544 323.000 C 328.063 321.900,328.648 320.687,328.844 320.305 C 329.040 319.923,329.200 319.338,329.200 319.005 C 329.200 318.672,329.380 318.400,329.600 318.400 C 329.820 318.400,330.000 318.040,330.000 317.600 C 330.000 317.160,330.180 316.800,330.400 316.800 C 330.620 316.800,330.800 316.260,330.800 315.600 C 330.800 314.940,330.980 314.400,331.200 314.400 C 331.420 314.400,331.600 313.860,331.600 313.200 C 331.600 312.540,331.741 312.000,331.913 312.000 C 332.085 312.000,332.457 311.145,332.739 310.100 C 333.022 309.055,333.421 307.887,333.627 307.505 C 333.832 307.123,334.000 306.459,334.000 306.029 C 334.000 305.599,334.180 305.136,334.400 305.000 C 334.620 304.864,334.800 304.133,334.800 303.376 C 334.800 302.619,334.980 302.000,335.200 302.000 C 335.420 302.000,335.600 301.280,335.600 300.400 C 335.600 299.520,335.780 298.800,336.000 298.800 C 336.220 298.800,336.400 298.001,336.400 297.024 C 336.400 296.047,336.580 295.136,336.800 295.000 C 337.020 294.864,337.200 293.773,337.200 292.576 C 337.200 291.379,337.366 290.400,337.568 290.400 C 338.828 290.400,338.838 229.883,337.579 228.620 C 337.370 228.411,337.200 226.566,337.200 224.520 C 337.200 222.307,337.038 220.800,336.800 220.800 C 336.572 220.800,336.400 219.608,336.400 218.024 C 336.400 216.497,336.220 215.136,336.000 215.000 C 335.780 214.864,335.600 213.683,335.600 212.376 C 335.600 211.059,335.422 210.000,335.200 210.000 C 334.980 210.000,334.800 209.100,334.800 208.000 C 334.800 206.900,334.620 206.000,334.400 206.000 C 334.180 206.000,334.000 205.100,334.000 204.000 C 334.000 202.900,333.820 202.000,333.600 202.000 C 333.380 202.000,333.200 201.280,333.200 200.400 C 333.200 199.520,333.020 198.800,332.800 198.800 C 332.580 198.800,332.400 198.181,332.400 197.424 C 332.400 196.667,332.220 195.936,332.000 195.800 C 331.780 195.664,331.600 195.023,331.600 194.376 C 331.600 193.729,331.420 193.200,331.200 193.200 C 330.980 193.200,330.800 192.761,330.800 192.224 C 330.800 191.687,330.620 191.136,330.400 191.000 C 330.180 190.864,330.000 190.324,330.000 189.800 C 330.000 189.276,329.820 188.736,329.600 188.600 C 329.380 188.464,329.200 187.913,329.200 187.376 C 329.200 186.839,329.020 186.400,328.800 186.400 C 328.580 186.400,328.400 185.860,328.400 185.200 C 328.400 184.540,328.220 184.000,328.000 184.000 C 327.780 184.000,327.600 183.640,327.600 183.200 C 327.600 182.760,327.420 182.400,327.200 182.400 C 326.980 182.400,326.800 181.950,326.800 181.400 C 326.800 180.850,326.620 180.400,326.400 180.400 C 326.180 180.400,326.000 179.965,326.000 179.433 C 326.000 178.902,325.865 178.407,325.700 178.333 C 325.535 178.260,324.872 177.075,324.226 175.700 C 323.581 174.325,322.906 173.200,322.726 173.200 C 322.547 173.200,322.400 172.840,322.400 172.400 C 322.400 171.960,322.220 171.600,322.000 171.600 C 321.780 171.600,321.600 171.280,321.600 170.888 C 321.600 170.497,321.240 169.917,320.800 169.600 C 320.360 169.283,320.000 168.743,320.000 168.400 C 320.000 168.057,319.640 167.517,319.200 167.200 C 318.760 166.883,318.400 166.415,318.400 166.160 C 318.400 165.905,317.680 164.955,316.800 164.048 C 315.920 163.141,315.200 162.259,315.200 162.088 C 315.200 161.748,306.884 153.600,306.536 153.600 C 306.418 153.600,305.817 153.060,305.200 152.400 C 304.583 151.740,303.857 151.200,303.586 151.200 C 303.316 151.200,302.803 150.884,302.447 150.497 C 302.091 150.111,301.305 149.540,300.700 149.230 C 300.095 148.919,299.600 148.515,299.600 148.332 C 299.600 148.150,299.240 148.000,298.800 148.000 C 298.360 148.000,297.999 147.865,297.997 147.700 C 297.995 147.535,297.590 147.199,297.097 146.954 C 296.604 146.709,295.030 145.922,293.600 145.205 C 288.643 142.720,287.921 142.400,287.262 142.398 C 286.898 142.396,286.084 142.126,285.454 141.798 C 284.824 141.469,283.890 141.200,283.378 141.200 C 282.866 141.200,282.336 141.020,282.200 140.800 C 282.064 140.580,281.333 140.400,280.576 140.400 C 279.819 140.400,279.200 140.220,279.200 140.000 C 279.200 139.780,278.480 139.600,277.600 139.600 C 276.720 139.600,276.000 139.420,276.000 139.200 C 276.000 138.980,275.190 138.800,274.200 138.800 C 273.210 138.800,272.400 138.620,272.400 138.400 C 272.400 138.178,271.333 138.000,270.000 138.000 C 268.667 138.000,267.600 137.822,267.600 137.600 C 267.600 137.363,266.133 137.200,264.000 137.200 C 261.867 137.200,260.400 137.037,260.400 136.800 C 260.400 136.543,256.533 136.400,249.600 136.400 C 242.667 136.400,238.800 136.543,238.800 136.800 M87.400 161.600 C 87.264 161.820,86.696 162.000,86.137 162.000 C 85.107 162.000,81.600 165.227,81.600 166.175 C 81.600 166.422,81.240 166.883,80.800 167.200 C 80.360 167.517,80.000 168.057,80.000 168.400 C 80.000 168.743,79.640 169.283,79.200 169.600 C 78.760 169.917,78.400 170.497,78.400 170.888 C 78.400 171.280,78.265 171.603,78.100 171.606 C 77.935 171.610,77.080 173.095,76.200 174.906 C 75.320 176.718,74.465 178.260,74.300 178.333 C 74.135 178.407,74.000 178.801,74.000 179.210 C 74.000 179.618,73.820 180.064,73.600 180.200 C 73.380 180.336,73.200 180.887,73.200 181.424 C 73.200 181.961,73.020 182.400,72.800 182.400 C 72.580 182.400,72.400 182.760,72.400 183.200 C 72.400 183.640,72.220 184.000,72.000 184.000 C 71.780 184.000,71.600 184.540,71.600 185.200 C 71.600 185.860,71.420 186.400,71.200 186.400 C 70.980 186.400,70.800 186.762,70.800 187.205 C 70.800 187.648,70.620 188.368,70.400 188.805 C 70.180 189.242,69.820 189.958,69.600 190.395 C 69.380 190.832,69.200 191.642,69.200 192.195 C 69.200 192.748,69.020 193.200,68.800 193.200 C 68.580 193.200,68.400 193.729,68.400 194.376 C 68.400 195.023,68.220 195.664,68.000 195.800 C 67.780 195.936,67.600 196.667,67.600 197.424 C 67.600 198.181,67.420 198.800,67.200 198.800 C 66.980 198.800,66.800 199.520,66.800 200.400 C 66.800 201.280,66.620 202.000,66.400 202.000 C 66.180 202.000,66.000 202.900,66.000 204.000 C 66.000 205.100,65.820 206.000,65.600 206.000 C 65.380 206.000,65.200 206.900,65.200 208.000 C 65.200 209.100,65.020 210.000,64.800 210.000 C 64.578 210.000,64.400 211.059,64.400 212.376 C 64.400 213.683,64.220 214.864,64.000 215.000 C 63.780 215.136,63.600 216.497,63.600 218.024 C 63.600 219.608,63.428 220.800,63.200 220.800 C 62.962 220.800,62.800 222.307,62.800 224.520 C 62.800 226.566,62.630 228.411,62.422 228.620 C 61.588 229.458,60.784 283.744,61.593 284.553 C 61.817 284.777,62.000 286.173,62.000 287.656 C 62.000 289.139,62.180 290.464,62.400 290.600 C 62.620 290.736,62.800 291.726,62.800 292.800 C 62.800 293.874,62.980 294.864,63.200 295.000 C 63.420 295.136,63.600 296.047,63.600 297.024 C 63.600 298.001,63.780 298.800,64.000 298.800 C 64.220 298.800,64.400 299.520,64.400 300.400 C 64.400 301.280,64.580 302.000,64.800 302.000 C 65.020 302.000,65.200 302.619,65.200 303.376 C 65.200 304.133,65.380 304.864,65.600 305.000 C 65.820 305.136,66.000 305.599,66.000 306.029 C 66.000 306.459,66.168 307.123,66.373 307.505 C 66.579 307.887,66.978 309.055,67.261 310.100 C 67.543 311.145,67.915 312.000,68.087 312.000 C 68.259 312.000,68.400 312.540,68.400 313.200 C 68.400 313.860,68.580 314.400,68.800 314.400 C 69.020 314.400,69.200 314.940,69.200 315.600 C 69.200 316.260,69.380 316.800,69.600 316.800 C 69.820 316.800,70.000 317.160,70.000 317.600 C 70.000 318.040,70.180 318.400,70.400 318.400 C 70.620 318.400,70.800 318.672,70.800 319.005 C 70.800 319.338,70.960 319.923,71.156 320.305 C 71.352 320.687,71.937 321.900,72.456 323.000 C 72.975 324.100,73.535 325.060,73.700 325.133 C 73.865 325.207,74.000 325.612,74.000 326.033 C 74.000 326.455,74.180 326.800,74.400 326.800 C 74.620 326.800,74.800 327.076,74.800 327.413 C 74.800 328.181,76.779 332.153,77.251 332.333 C 77.443 332.407,77.600 332.812,77.600 333.233 C 77.600 333.655,77.780 334.000,78.000 334.000 C 78.220 334.000,78.400 334.236,78.400 334.525 C 78.400 334.813,78.715 335.398,79.100 335.825 C 79.485 336.251,80.055 337.095,80.368 337.700 C 80.680 338.305,81.085 338.800,81.268 338.800 C 81.450 338.800,81.600 339.042,81.600 339.338 C 81.600 339.634,81.960 340.202,82.400 340.600 C 82.840 340.998,83.200 341.494,83.200 341.702 C 83.200 341.909,83.740 342.583,84.400 343.200 C 85.060 343.817,85.600 344.520,85.600 344.764 C 85.600 345.008,86.140 345.772,86.800 346.463 C 87.460 347.154,88.000 347.886,88.000 348.091 C 88.000 348.295,88.720 349.154,89.600 350.000 C 90.480 350.846,91.200 351.755,91.200 352.022 C 91.200 352.606,104.662 366.000,105.250 366.000 C 105.477 366.000,106.354 366.720,107.200 367.600 C 108.046 368.480,108.841 369.200,108.968 369.200 C 109.094 369.200,109.866 369.830,110.682 370.599 C 111.498 371.369,112.488 372.101,112.883 372.226 C 113.277 372.351,113.600 372.584,113.600 372.743 C 113.600 372.902,114.500 373.558,115.600 374.200 C 116.700 374.842,117.600 375.510,117.600 375.684 C 117.600 375.858,117.920 376.000,118.312 376.000 C 118.703 376.000,119.283 376.360,119.600 376.800 C 119.917 377.240,120.497 377.600,120.888 377.600 C 121.280 377.600,121.600 377.780,121.600 378.000 C 121.600 378.220,121.836 378.400,122.125 378.400 C 122.413 378.400,123.036 378.760,123.508 379.200 C 123.980 379.640,124.644 380.000,124.983 380.000 C 125.322 380.000,125.600 380.180,125.600 380.400 C 125.600 380.620,125.788 380.800,126.017 380.800 C 126.246 380.800,126.820 381.160,127.292 381.600 C 127.764 382.040,128.387 382.400,128.675 382.400 C 128.964 382.400,129.200 382.580,129.200 382.800 C 129.200 383.020,129.560 383.200,130.000 383.200 C 130.440 383.200,130.800 383.380,130.800 383.600 C 130.800 383.820,131.160 384.000,131.600 384.000 C 132.040 384.000,132.400 384.180,132.400 384.400 C 132.400 384.620,132.760 384.800,133.200 384.800 C 133.640 384.800,134.000 384.980,134.000 385.200 C 134.000 385.420,134.360 385.600,134.800 385.600 C 135.240 385.600,135.600 385.780,135.600 386.000 C 135.600 386.220,135.960 386.400,136.400 386.400 C 136.840 386.400,137.200 386.580,137.200 386.800 C 137.200 387.020,137.560 387.200,138.000 387.200 C 138.440 387.200,138.800 387.380,138.800 387.600 C 138.800 387.820,139.065 388.000,139.390 388.000 C 139.714 388.000,141.159 388.540,142.600 389.200 C 144.041 389.860,145.375 390.400,145.564 390.400 C 145.754 390.400,146.424 390.669,147.054 390.998 C 147.684 391.326,148.695 391.596,149.300 391.598 C 149.905 391.599,150.400 391.780,150.400 392.000 C 150.400 392.220,150.940 392.400,151.600 392.400 C 152.260 392.400,152.800 392.580,152.800 392.800 C 152.800 393.020,153.340 393.200,154.000 393.200 C 154.660 393.200,155.200 393.380,155.200 393.600 C 155.200 393.820,155.740 394.000,156.400 394.000 C 157.060 394.000,157.600 394.180,157.600 394.400 C 157.600 394.620,158.230 394.800,159.000 394.800 C 159.770 394.800,160.400 394.980,160.400 395.200 C 160.400 395.420,161.030 395.600,161.800 395.600 C 162.570 395.600,163.200 395.780,163.200 396.000 C 163.200 396.220,164.010 396.400,165.000 396.400 C 165.990 396.400,166.800 396.580,166.800 396.800 C 166.800 397.020,167.520 397.200,168.400 397.200 C 169.280 397.200,170.000 397.380,170.000 397.600 C 170.000 397.820,170.889 398.000,171.976 398.000 C 173.063 398.000,174.064 398.180,174.200 398.400 C 174.336 398.620,175.502 398.800,176.790 398.800 C 178.309 398.800,179.192 398.976,179.300 399.300 C 179.544 400.031,220.456 400.031,220.700 399.300 C 220.806 398.982,221.656 398.800,223.033 398.800 C 224.225 398.800,225.200 398.620,225.200 398.400 C 225.200 398.178,226.267 398.000,227.600 398.000 C 228.933 398.000,230.000 397.822,230.000 397.600 C 230.000 397.380,230.278 397.200,230.618 397.200 C 231.418 397.200,233.200 395.418,233.200 394.618 C 233.200 394.278,233.380 394.000,233.600 394.000 C 234.255 394.000,234.081 390.165,233.400 389.600 C 233.070 389.326,232.800 388.873,232.800 388.592 C 232.800 387.872,230.183 385.661,228.969 385.356 C 227.960 385.103,227.424 385.156,222.400 386.003 C 207.970 388.436,194.260 388.549,179.800 386.356 C 175.715 385.737,173.491 385.294,167.600 383.926 C 162.587 382.762,153.117 379.523,146.784 376.807 C 112.241 361.990,86.356 333.138,77.446 299.521 C 74.289 287.609,73.835 282.042,74.122 258.800 C 74.679 213.671,79.243 192.489,92.618 172.952 C 94.794 169.774,95.011 167.598,93.410 165.000 C 92.868 164.120,92.419 163.085,92.412 162.700 C 92.403 162.195,92.073 162.000,91.224 162.000 C 90.577 162.000,89.936 161.820,89.800 161.600 C 89.664 161.380,89.124 161.200,88.600 161.200 C 88.076 161.200,87.536 161.380,87.400 161.600 M182.200 166.082 C 174.846 168.652,177.051 175.612,186.985 181.192 C 197.770 187.249,217.630 183.161,221.414 174.105 C 224.124 167.618,216.681 163.211,211.197 168.056 C 204.741 173.758,195.259 173.758,188.803 168.056 C 186.327 165.869,184.432 165.302,182.200 166.082 M308.016 249.448 C 306.119 251.044,305.600 252.395,305.600 255.737 C 305.600 284.324,291.435 314.971,268.595 335.800 C 253.313 349.736,232.691 360.918,213.600 365.619 C 202.963 368.238,195.665 369.347,184.615 370.026 C 175.293 370.598,173.600 371.545,173.600 376.185 C 173.600 382.317,179.227 383.363,198.200 380.760 C 264.502 371.661,313.998 321.670,317.167 260.600 C 317.583 252.590,317.473 251.873,315.538 249.938 C 313.513 247.913,310.104 247.691,308.016 249.448 " stroke="none" fill="#1c252d" fill-rule="evenodd"></path><path id="path1" d="M127.200 18.301 C 127.200 18.466,143.040 34.441,162.400 53.800 C 188.258 79.657,197.600 88.765,197.600 88.119 C 197.600 87.635,197.330 86.240,197.000 85.020 C 196.670 83.799,196.130 81.810,195.800 80.600 C 195.470 79.390,194.948 77.455,194.640 76.300 C 193.750 72.962,191.158 64.334,190.584 62.800 C 190.296 62.030,189.481 59.780,188.773 57.800 C 183.297 42.482,180.256 38.905,167.400 32.661 C 159.065 28.612,154.878 26.961,142.481 22.837 C 127.758 17.938,127.200 17.773,127.200 18.301 M118.000 27.181 C 118.000 27.391,118.163 27.976,118.363 28.481 C 118.562 28.987,119.302 31.290,120.007 33.600 C 126.462 54.752,133.054 70.140,139.018 77.976 C 142.283 82.266,149.921 86.159,164.600 91.014 C 173.529 93.968,188.204 97.929,188.632 97.501 C 188.877 97.257,118.714 26.800,118.226 26.800 C 118.102 26.800,118.000 26.972,118.000 27.181 M227.400 143.600 C 227.264 143.820,226.103 144.000,224.819 144.000 C 222.350 144.000,222.000 144.271,222.000 146.184 C 222.000 149.767,219.664 151.691,214.000 152.772 C 212.790 153.003,209.145 153.763,205.901 154.462 L 200.002 155.733 195.901 154.847 C 192.091 154.025,190.323 153.649,186.200 152.788 C 184.560 152.445,181.641 151.935,177.400 151.252 C 175.166 150.891,173.224 150.656,163.773 149.604 C 159.061 149.079,142.524 149.083,138.516 149.609 C 126.691 151.163,118.939 153.324,111.109 157.250 C 106.885 159.368,104.421 159.254,102.237 156.841 C 101.277 155.780,99.948 155.762,99.200 156.800 C 98.883 157.240,98.386 157.600,98.096 157.600 C 97.806 157.600,96.360 158.764,94.884 160.187 L 92.200 162.775 93.300 164.746 C 94.993 167.782,94.833 169.718,92.618 172.952 C 79.243 192.489,74.679 213.671,74.122 258.800 C 73.780 286.435,74.833 294.137,81.281 311.200 C 88.216 329.550,102.452 347.881,120.601 361.829 C 130.350 369.321,144.859 376.781,157.984 381.049 C 165.223 383.403,165.565 383.499,171.300 384.780 C 187.881 388.482,205.230 388.898,222.400 386.003 C 227.424 385.156,227.960 385.103,228.969 385.356 C 230.172 385.658,232.800 387.869,232.800 388.579 C 232.800 389.985,234.998 390.774,236.881 390.044 C 237.387 389.848,239.150 389.275,240.800 388.772 C 244.533 387.632,244.546 387.621,244.462 385.410 C 244.325 381.789,245.971 379.797,250.600 377.985 C 259.316 374.572,272.385 367.239,279.394 361.830 C 295.191 349.637,307.314 335.212,314.887 319.600 C 320.160 308.728,323.051 299.670,325.040 287.788 C 327.282 274.398,325.648 227.418,322.384 211.400 C 322.159 210.300,321.776 208.410,321.531 207.200 C 315.509 177.443,300.085 158.732,276.400 152.451 C 271.285 151.094,270.442 150.906,267.400 150.444 C 260.327 149.368,257.708 149.200,248.043 149.200 C 235.662 149.200,235.584 149.175,233.790 144.700 L 233.189 143.200 230.418 143.200 C 228.894 143.200,227.536 143.380,227.400 143.600 M137.801 164.900 C 142.873 168.184,140.945 174.016,134.000 176.398 C 118.594 181.683,106.452 196.423,102.366 214.800 C 98.902 230.379,97.592 243.694,97.597 263.251 C 97.600 274.233,97.433 275.352,95.535 277.024 C 92.493 279.703,88.220 279.044,86.305 275.600 C 85.438 274.041,85.499 249.867,86.395 240.200 C 90.371 197.284,102.813 175.300,128.600 165.628 C 129.920 165.133,131.360 164.576,131.800 164.391 C 133.413 163.712,136.351 163.961,137.801 164.900 M185.557 166.034 C 186.354 166.273,187.815 167.183,188.803 168.056 C 195.259 173.758,204.741 173.758,211.197 168.056 C 214.290 165.323,217.430 165.070,219.935 167.349 C 228.102 174.781,209.494 186.991,194.800 183.843 C 180.387 180.756,172.405 169.505,182.200 166.082 C 183.782 165.530,183.869 165.529,185.557 166.034 M315.538 249.938 C 317.473 251.873,317.583 252.590,317.167 260.600 C 313.998 321.670,264.502 371.661,198.200 380.760 C 179.227 383.363,173.600 382.317,173.600 376.185 C 173.600 371.545,175.293 370.598,184.615 370.026 C 194.776 369.402,201.410 368.459,210.600 366.334 C 251.002 356.988,285.302 327.896,298.699 291.615 C 302.959 280.075,305.600 266.348,305.600 255.737 C 305.600 249.077,311.332 245.732,315.538 249.938 " stroke="none" fill="#2cebf3" fill-rule="evenodd"></path><path id="path2" d="M131.800 164.391 C 131.360 164.576,129.920 165.133,128.600 165.628 C 102.813 175.300,90.371 197.284,86.395 240.200 C 85.499 249.867,85.438 274.041,86.305 275.600 C 88.220 279.044,92.493 279.703,95.535 277.024 C 97.433 275.352,97.600 274.233,97.597 263.251 C 97.592 243.694,98.902 230.379,102.366 214.800 C 106.452 196.423,118.594 181.683,134.000 176.398 C 138.807 174.749,140.400 173.107,140.400 169.800 C 140.400 165.567,135.831 162.693,131.800 164.391 " stroke="none" fill="#f7fbfc" fill-rule="evenodd"></path></g></svg>